<svg width="414" height="178" viewBox="0 0 414 178" fill="none" xmlns="http://www.w3.org/2000/svg">
<path d="M3.6 76V1.49999H15.5L55.5 54.2L49.1 55.7V1.49999H64.6V76H52.6L13.3 22.9L19.1 21.4V76H3.6ZM103.519 98C99.3188 98 95.4188 97.3 91.8188 95.9C88.2188 94.5 85.1188 92.5333 82.5188 90C79.9854 87.5333 78.1521 84.6 77.0188 81.2L90.9188 76.3C91.6521 78.8333 93.1521 80.8333 95.4188 82.3C97.6854 83.7667 100.385 84.5 103.519 84.5C105.985 84.5 108.119 84.0333 109.919 83.1C111.719 82.2333 113.085 80.9333 114.019 79.2C115.019 77.4667 115.519 75.4333 115.519 73.1V60.6L118.419 64.2C116.552 67.2667 114.152 69.5667 111.219 71.1C108.285 72.5667 104.852 73.3 100.919 73.3C95.8521 73.3 91.3188 72.1667 87.3188 69.9C83.3188 67.5667 80.1854 64.4 77.9188 60.4C75.6521 56.3333 74.5187 51.7333 74.5187 46.6C74.5187 41.4667 75.6521 36.9333 77.9188 33C80.1854 29 83.2854 25.8667 87.2188 23.6C91.1521 21.3333 95.6188 20.2 100.619 20.2C104.552 20.2 107.985 21 110.919 22.6C113.852 24.1333 116.352 26.5 118.419 29.7L116.519 33.3V21.4H130.519V73.1C130.519 77.9 129.352 82.1667 127.019 85.9C124.685 89.7 121.485 92.6667 117.419 94.8C113.419 96.9333 108.785 98 103.519 98ZM103.019 59.7C105.552 59.7 107.752 59.1667 109.619 58.1C111.485 57.0333 112.919 55.5333 113.919 53.6C114.985 51.6667 115.519 49.4 115.519 46.8C115.519 44.2 114.985 41.9333 113.919 40C112.852 38 111.385 36.4667 109.519 35.4C107.652 34.2667 105.485 33.7 103.019 33.7C100.485 33.7 98.2188 34.2667 96.2188 35.4C94.2854 36.4667 92.7521 38 91.6188 40C90.5521 41.9333 90.0188 44.2 90.0188 46.8C90.0188 49.3333 90.5521 51.5667 91.6188 53.5C92.7521 55.4333 94.2854 56.9667 96.2188 58.1C98.2188 59.1667 100.485 59.7 103.019 59.7ZM168.663 77.2C163.263 77.2 158.329 75.9667 153.863 73.5C149.463 71.0333 145.929 67.6667 143.263 63.4C140.663 59.0667 139.362 54.1667 139.362 48.7C139.362 43.1667 140.663 38.2667 143.263 34C145.929 29.7333 149.463 26.3667 153.863 23.9C158.329 21.4333 163.263 20.2 168.663 20.2C174.063 20.2 178.963 21.4333 183.363 23.9C187.763 26.3667 191.263 29.7333 193.863 34C196.529 38.2667 197.863 43.1667 197.863 48.7C197.863 54.1667 196.529 59.0667 193.863 63.4C191.263 67.6667 187.763 71.0333 183.363 73.5C178.963 75.9667 174.063 77.2 168.663 77.2ZM168.663 63.7C171.396 63.7 173.763 63.0667 175.763 61.8C177.829 60.5333 179.429 58.7667 180.563 56.5C181.763 54.2333 182.363 51.6333 182.363 48.7C182.363 45.7667 181.763 43.2 180.563 41C179.429 38.7333 177.829 36.9667 175.763 35.7C173.763 34.3667 171.396 33.7 168.663 33.7C165.929 33.7 163.529 34.3667 161.463 35.7C159.396 36.9667 157.763 38.7333 156.563 41C155.429 43.2 154.863 45.7667 154.863 48.7C154.863 51.6333 155.429 54.2333 156.563 56.5C157.763 58.7667 159.396 60.5333 161.463 61.8C163.529 63.0667 165.929 63.7 168.663 63.7ZM232.399 77.2C227.066 77.2 222.299 75.9333 218.099 73.4C213.899 70.8667 210.566 67.4333 208.099 63.1C205.699 58.7667 204.499 53.9667 204.499 48.7C204.499 43.3667 205.733 38.5667 208.199 34.3C210.666 29.9667 213.999 26.5333 218.199 24C222.399 21.4667 227.099 20.2 232.299 20.2C236.299 20.2 239.833 20.9667 242.899 22.5C246.033 23.9667 248.499 26.0667 250.299 28.8L247.999 31.8V0.299997H262.999V76H248.999V66L250.399 69.1C248.533 71.7667 245.999 73.8 242.799 75.2C239.599 76.5333 236.133 77.2 232.399 77.2ZM234.199 63.7C236.933 63.7 239.333 63.0667 241.399 61.8C243.466 60.5333 245.066 58.7667 246.199 56.5C247.399 54.2333 247.999 51.6333 247.999 48.7C247.999 45.7667 247.399 43.1667 246.199 40.9C245.066 38.6333 243.466 36.8667 241.399 35.6C239.333 34.3333 236.933 33.7 234.199 33.7C231.466 33.7 228.999 34.3667 226.799 35.7C224.666 36.9667 222.999 38.7333 221.799 41C220.599 43.2 219.999 45.7667 219.999 48.7C219.999 51.6333 220.599 54.2333 221.799 56.5C222.999 58.7667 224.666 60.5333 226.799 61.8C228.999 63.0667 231.466 63.7 234.199 63.7ZM273.984 76V21.4H288.984V76H273.984ZM273.984 16.5V1.49999H288.984V16.5H273.984ZM299.961 76V21.4H313.961V32.2L313.161 29.8C314.428 26.5333 316.461 24.1333 319.261 22.6C322.128 21 325.461 20.2 329.261 20.2C333.394 20.2 336.994 21.0667 340.061 22.8C343.194 24.5333 345.628 26.9667 347.361 30.1C349.094 33.1667 349.961 36.7667 349.961 40.9V76H334.961V44.1C334.961 41.9667 334.528 40.1333 333.661 38.6C332.861 37.0667 331.694 35.8667 330.161 35C328.694 34.1333 326.961 33.7 324.961 33.7C323.028 33.7 321.294 34.1333 319.761 35C318.228 35.8667 317.028 37.0667 316.161 38.6C315.361 40.1333 314.961 41.9667 314.961 44.1V76H299.961ZM386.624 98C382.424 98 378.524 97.3 374.924 95.9C371.324 94.5 368.224 92.5333 365.624 90C363.091 87.5333 361.258 84.6 360.124 81.2L374.024 76.3C374.758 78.8333 376.258 80.8333 378.524 82.3C380.791 83.7667 383.491 84.5 386.624 84.5C389.091 84.5 391.224 84.0333 393.024 83.1C394.824 82.2333 396.191 80.9333 397.124 79.2C398.124 77.4667 398.624 75.4333 398.624 73.1V60.6L401.524 64.2C399.658 67.2667 397.258 69.5667 394.324 71.1C391.391 72.5667 387.958 73.3 384.024 73.3C378.958 73.3 374.424 72.1667 370.424 69.9C366.424 67.5667 363.291 64.4 361.024 60.4C358.758 56.3333 357.624 51.7333 357.624 46.6C357.624 41.4667 358.758 36.9333 361.024 33C363.291 29 366.391 25.8667 370.324 23.6C374.258 21.3333 378.724 20.2 383.724 20.2C387.658 20.2 391.091 21 394.024 22.6C396.958 24.1333 399.458 26.5 401.524 29.7L399.624 33.3V21.4H413.624V73.1C413.624 77.9 412.458 82.1667 410.124 85.9C407.791 89.7 404.591 92.6667 400.524 94.8C396.524 96.9333 391.891 98 386.624 98ZM386.124 59.7C388.658 59.7 390.858 59.1667 392.724 58.1C394.591 57.0333 396.024 55.5333 397.024 53.6C398.091 51.6667 398.624 49.4 398.624 46.8C398.624 44.2 398.091 41.9333 397.024 40C395.958 38 394.491 36.4667 392.624 35.4C390.758 34.2667 388.591 33.7 386.124 33.7C383.591 33.7 381.324 34.2667 379.324 35.4C377.391 36.4667 375.858 38 374.724 40C373.658 41.9333 373.124 44.2 373.124 46.8C373.124 49.3333 373.658 51.5667 374.724 53.5C375.858 55.4333 377.391 56.9667 379.324 58.1C381.324 59.1667 383.591 59.7 386.124 59.7ZM30.7 177.2C26.0333 177.2 21.6333 176.367 17.5 174.7C13.4333 172.967 9.9 170.533 6.9 167.4C3.96667 164.267 1.76667 160.567 0.3 156.3L13 150.6C14.8667 154.667 17.4333 157.867 20.7 160.2C24.0333 162.533 27.7 163.7 31.7 163.7C33.8333 163.7 35.6667 163.367 37.2 162.7C38.7333 162.033 39.9333 161.133 40.8 160C41.6667 158.8 42.1 157.4 42.1 155.8C42.1 154.067 41.5667 152.6 40.5 151.4C39.4333 150.133 37.7667 149.133 35.5 148.4L20.9 143.6C14.9667 141.667 10.5 138.933 7.5 135.4C4.5 131.8 3 127.5 3 122.5C3 118.1 4.06667 114.233 6.2 110.9C8.4 107.567 11.4333 104.967 15.3 103.1C19.2333 101.233 23.7333 100.3 28.8 100.3C33.2667 100.3 37.4 101.067 41.2 102.6C45 104.133 48.2667 106.3 51 109.1C53.8 111.9 55.9 115.267 57.3 119.2L44.7 124.9C43.3 121.433 41.2 118.733 38.4 116.8C35.6 114.8 32.4 113.8 28.8 113.8C26.7333 113.8 24.9 114.133 23.3 114.8C21.7 115.467 20.4667 116.433 19.6 117.7C18.7333 118.9 18.3 120.3 18.3 121.9C18.3 123.633 18.8667 125.167 20 126.5C21.1333 127.767 22.8333 128.767 25.1 129.5L39.4 134.1C45.4 136.033 49.8667 138.733 52.8 142.2C55.8 145.667 57.3 149.9 57.3 154.9C57.3 159.233 56.1667 163.1 53.9 166.5C51.6333 169.833 48.5 172.467 44.5 174.4C40.5667 176.267 35.9667 177.2 30.7 177.2ZM94.3461 177.2C88.9461 177.2 84.0128 175.967 79.5461 173.5C75.1461 171.033 71.6128 167.667 68.9461 163.4C66.3461 159.067 65.0461 154.167 65.0461 148.7C65.0461 143.167 66.3461 138.267 68.9461 134C71.6128 129.733 75.1461 126.367 79.5461 123.9C84.0128 121.433 88.9461 120.2 94.3461 120.2C99.7461 120.2 104.646 121.433 109.046 123.9C113.446 126.367 116.946 129.733 119.546 134C122.213 138.267 123.546 143.167 123.546 148.7C123.546 154.167 122.213 159.067 119.546 163.4C116.946 167.667 113.446 171.033 109.046 173.5C104.646 175.967 99.7461 177.2 94.3461 177.2ZM94.3461 163.7C97.0794 163.7 99.4461 163.067 101.446 161.8C103.513 160.533 105.113 158.767 106.246 156.5C107.446 154.233 108.046 151.633 108.046 148.7C108.046 145.767 107.446 143.2 106.246 141C105.113 138.733 103.513 136.967 101.446 135.7C99.4461 134.367 97.0794 133.7 94.3461 133.7C91.6128 133.7 89.2128 134.367 87.1461 135.7C85.0794 136.967 83.4461 138.733 82.2461 141C81.1128 143.2 80.5461 145.767 80.5461 148.7C80.5461 151.633 81.1128 154.233 82.2461 156.5C83.4461 158.767 85.0794 160.533 87.1461 161.8C89.2128 163.067 91.6128 163.7 94.3461 163.7ZM132.383 176V121.4H146.383V134.5L145.383 132.6C146.583 128 148.549 124.9 151.283 123.3C154.083 121.633 157.383 120.8 161.183 120.8H164.383V133.8H159.683C156.016 133.8 153.049 134.933 150.783 137.2C148.516 139.4 147.383 142.533 147.383 146.6V176H132.383ZM197.257 177.2C191.457 177.2 186.424 175.933 182.157 173.4C177.89 170.8 174.59 167.333 172.257 163C169.924 158.667 168.757 153.867 168.757 148.6C168.757 143.133 169.957 138.267 172.357 134C174.824 129.733 178.124 126.367 182.257 123.9C186.39 121.433 191.057 120.2 196.257 120.2C200.59 120.2 204.424 120.9 207.757 122.3C211.09 123.633 213.89 125.533 216.157 128C218.49 130.467 220.257 133.333 221.457 136.6C222.657 139.8 223.257 143.3 223.257 147.1C223.257 148.167 223.19 149.233 223.057 150.3C222.99 151.3 222.824 152.167 222.557 152.9H181.657V141.9H214.057L206.957 147.1C207.624 144.233 207.59 141.7 206.857 139.5C206.124 137.233 204.824 135.467 202.957 134.2C201.157 132.867 198.924 132.2 196.257 132.2C193.657 132.2 191.424 132.833 189.557 134.1C187.69 135.367 186.29 137.233 185.357 139.7C184.424 142.167 184.057 145.167 184.257 148.7C183.99 151.767 184.357 154.467 185.357 156.8C186.357 159.133 187.89 160.967 189.957 162.3C192.024 163.567 194.524 164.2 197.457 164.2C200.124 164.2 202.39 163.667 204.257 162.6C206.19 161.533 207.69 160.067 208.757 158.2L220.757 163.9C219.69 166.567 217.99 168.9 215.657 170.9C213.39 172.9 210.69 174.467 207.557 175.6C204.424 176.667 200.99 177.2 197.257 177.2Z" fill="white"/>
</svg>
